<svg xmlns="http://www.w3.org/2000/svg" viewBox="0 0 1200 700">
<defs>
<linearGradient id="bg" x1="0" x2="1"><stop stop-color="#0d2439"/><stop offset="1" stop-color="#183e5d"/></linearGradient>
<linearGradient id="glass" x1="0" x2="1"><stop stop-color="#ffffff" stop-opacity=".2"/><stop offset="1" stop-color="#ffffff" stop-opacity=".05"/></linearGradient>
</defs>
<rect width="1200" height="700" fill="url(#bg)"/>
<circle cx="1000" cy="100" r="260" fill="#f28b2c" opacity=".18"/>
<circle cx="1040" cy="620" r="340" fill="#ffffff" opacity=".04"/>
<g transform="translate(120 115)">
<rect x="0" y="290" width="900" height="10" fill="#6f8ca2"/>
<rect x="50" y="120" width="150" height="170" rx="6" fill="url(#glass)" stroke="#8eb0c7"/>
<rect x="250" y="70" width="170" height="220" rx="6" fill="url(#glass)" stroke="#8eb0c7"/>
<rect x="480" y="145" width="130" height="145" rx="6" fill="url(#glass)" stroke="#8eb0c7"/>
<rect x="660" y="35" width="170" height="255" rx="6" fill="url(#glass)" stroke="#8eb0c7"/>
<g fill="#f28b2c">
<rect x="90" y="165" width="70" height="10"/><rect x="300" y="125" width="70" height="10"/>
<rect x="510" y="190" width="70" height="10"/><rect x="710" y="95" width="70" height="10"/>
</g>
<g transform="translate(720 330)">
<rect x="0" y="80" width="215" height="44" rx="22" fill="#f28b2c"/>
<rect x="82" y="0" width="48" height="135" rx="16" fill="#ffffff"/>
<path d="M60 18 L106 -25 L152 18 L133 40 L106 17 L79 40Z" fill="#f28b2c"/>
</g>
</g>
</svg>